<?xml version="1.0" encoding="UTF-8"?>
<svg version="1.1" xmlns="http://www.w3.org/2000/svg" width="645" height="657">
<path d="M0 0 C1.14275391 0.32484375 2.28550781 0.6496875 3.46289062 0.984375 C6.24744799 1.776634 9.03057009 2.57357356 11.8125 3.375 C13.17167281 8.66509151 11.63440157 11.7501627 9.3125 16.5 C8.48056112 18.27034817 7.65277956 20.04265322 6.828125 21.81640625 C6.35697266 22.82848145 5.88582031 23.84055664 5.40039062 24.88330078 C2.15880916 32.0113909 -0.8724083 39.23219935 -3.9375 46.4375 C-7.52508329 54.86751131 -11.11219548 63.28819698 -14.93603516 71.61450195 C-17.24739461 76.71292984 -19.44841642 81.8598967 -21.66461182 87.00021362 C-25.97007164 96.98468412 -30.29638215 106.95887991 -34.73950195 116.88305664 C-36.12638632 119.98086377 -37.48025826 123.08496105 -38.7734375 126.22265625 C-40.1875 129.375 -40.1875 129.375 -42.1875 131.375 C-38.38762348 141.93487784 -33.81656837 152.13585175 -29.2734375 162.390625 C-26.08166219 169.59812272 -22.94210137 176.82786452 -19.8125 184.0625 C-19.26515508 185.32699362 -18.71779171 186.59147926 -18.17041016 187.85595703 C-16.23074186 192.33752155 -14.29250185 196.81970347 -12.35424805 201.30187988 C-6.26569884 215.38086901 -0.1700614 229.45647971 6 243.5 C6.68666748 245.06488159 6.68666748 245.06488159 7.38720703 246.66137695 C7.8098584 247.62132568 8.23250977 248.58127441 8.66796875 249.5703125 C9.03559326 250.40578613 9.40321777 251.24125977 9.78198242 252.10205078 C10.76622389 254.37610264 10.76622389 254.37610264 12.0090332 256.42529297 C12.99640943 258.82127795 12.66864624 259.97779054 11.8125 262.375 C11.03124756 262.57657715 10.24999512 262.7781543 9.44506836 262.98583984 C5.8798056 263.90629991 2.31490041 264.82813761 -1.25 265.75 C-2.47912109 266.06710937 -3.70824219 266.38421875 -4.97460938 266.7109375 C-6.76801758 267.175 -6.76801758 267.175 -8.59765625 267.6484375 C-9.75539551 267.94717773 -10.91313477 268.24591797 -12.10595703 268.55371094 C-14.469221 269.18356516 -16.79119389 269.86292497 -19.12109375 270.6015625 C-22.57296606 271.47222583 -25.64021114 271.4268311 -29.1875 271.375 C-29.24934479 270.8161763 -29.31118958 270.2573526 -29.37490845 269.68159485 C-32.24446208 243.75780498 -35.12351939 217.83508608 -38.05145264 191.91781616 C-38.30604665 189.66380379 -38.56032619 187.40975588 -38.81427002 185.15567017 C-40.19722354 172.88542827 -41.61345019 160.6223704 -43.1875 148.375 C-44.11146539 155.87411789 -45.02754401 163.37416918 -45.9375 170.875 C-46.07377808 171.99802521 -46.21005615 173.12105042 -46.35046387 174.27810669 C-48.42149649 191.40532678 -50.3004302 208.54041045 -51.89355469 225.71875 C-52.64195008 233.6804009 -53.54033385 241.53812571 -55.1875 249.375 C-66.8844085 246.48707362 -78.5420356 243.46357969 -90.1875 240.375 C-88.2786579 234.26939378 -86.00353845 228.48664499 -83.3125 222.6875 C-79.37286494 214.06613565 -75.5675091 205.39050007 -71.8125 196.6875 C-67.6500588 187.04162891 -63.44474612 177.41705766 -59.1875 167.8125 C-55.6179286 159.74718442 -52.17512348 151.67762215 -49.1875 143.375 C-49.8475 144.695 -50.5075 146.015 -51.1875 147.375 C-51.8475 147.375 -52.5075 147.375 -53.1875 147.375 C-53.60370605 148.25176392 -53.60370605 148.25176392 -54.02832031 149.14624023 C-55.13029821 151.26501787 -56.33182542 153.10576193 -57.734375 155.03515625 C-58.24242676 155.73664795 -58.75047852 156.43813965 -59.27392578 157.16088867 C-59.82290527 157.91217041 -60.37188477 158.66345215 -60.9375 159.4375 C-61.51097168 160.22680908 -62.08444336 161.01611816 -62.67529297 161.8293457 C-68.59172066 169.95982285 -74.56339025 178.0497679 -80.53710938 186.13818359 C-87.46032265 195.5213907 -94.33738505 204.93832712 -101.1875 214.375 C-105.76025087 220.67439125 -110.34278929 226.96660876 -114.9375 233.25 C-115.39745361 233.88067383 -115.85740723 234.51134766 -116.33129883 235.16113281 C-118.8728244 238.63252997 -121.47117702 242.03671521 -124.1875 245.375 C-128.47817546 243.72263349 -131.3304553 240.4844793 -134.484375 237.2734375 C-135.07800842 236.67697418 -135.67164185 236.08051086 -136.28326416 235.4659729 C-138.17276627 233.5653019 -140.05518392 231.65778526 -141.9375 229.75 C-143.21959065 228.45787532 -144.50213761 227.16620324 -145.78515625 225.875 C-148.92458432 222.71355521 -152.05767801 219.5459539 -155.1875 216.375 C-152.34289503 213.47750879 -149.50164773 211.03995308 -146.1875 208.6875 C-142.15161825 205.79476029 -138.15251158 202.86424701 -134.1875 199.875 C-130.46077921 197.07040371 -126.71711069 194.29536222 -122.9375 191.5625 C-118.48519169 188.33775669 -114.08016628 185.05511196 -109.6875 181.75 C-101.38249138 175.50360819 -93.01863221 169.33890395 -84.64599609 163.18359375 C-82.14408828 161.34306415 -79.64401968 159.50006362 -77.14453125 157.65625 C-68.84559533 151.53458912 -60.54222485 145.42044135 -52.1875 139.375 C-52.9609375 139.808125 -52.9609375 139.808125 -53.75 140.25 C-56.1875 141.375 -56.1875 141.375 -59.4453125 142.28515625 C-63.52248942 143.47255955 -67.2112702 145.0475369 -71.0625 146.8125 C-72.65075444 147.52928262 -74.23931415 148.24538907 -75.828125 148.9609375 C-76.68341797 149.34733398 -77.53871094 149.73373047 -78.41992188 150.13183594 C-83.53744228 152.43056688 -88.67605083 154.68146519 -93.8125 156.9375 C-95.43260986 157.64990845 -95.43260986 157.64990845 -97.08544922 158.37670898 C-103.39785051 161.15191422 -109.71328122 163.92008323 -116.03198242 166.6809082 C-125.32481901 170.74333095 -134.60443653 174.83590185 -143.88671875 178.92236328 C-147.16366577 180.36451082 -150.4411231 181.80549213 -153.71875 183.24609375 C-155.85417223 184.18488318 -157.98958896 185.12368512 -160.125 186.0625 C-161.167771 186.52076172 -162.21054199 186.97902344 -163.28491211 187.45117188 C-167.91548978 189.48787877 -172.54345944 191.52965344 -177.16015625 193.59765625 C-184.35758824 196.82141073 -191.56732019 199.97081986 -198.875 202.9375 C-204.64694722 205.28300946 -210.31086995 207.7820208 -215.93969727 210.45800781 C-222.34468741 213.48652259 -228.82688809 216.33657953 -235.3125 219.1875 C-236.95025391 219.90824707 -236.95025391 219.90824707 -238.62109375 220.64355469 C-244.48051027 223.21389027 -244.48051027 223.21389027 -247.1875 224.375 C-248.0419873 224.77420654 -248.89647461 225.17341309 -249.77685547 225.5847168 C-252.42335829 226.45232158 -253.61471783 226.32788229 -256.1875 225.375 C-260.57322686 209.65819036 -264.87818486 193.929159 -268.92797852 178.12182617 C-269.19666748 177.07357666 -269.46535645 176.02532715 -269.7421875 174.9453125 C-269.9906543 173.97368164 -270.23912109 173.00205078 -270.49511719 172.00097656 C-271.0823781 169.77369223 -271.71581125 167.57144556 -272.3828125 165.3671875 C-273.1875 162.375 -273.1875 162.375 -273.1875 158.375 C-271.82080078 158.22314453 -270.45410156 158.07128906 -269.08740234 157.91943359 C-268.17854782 157.81844864 -267.2696933 157.71746368 -266.33329773 157.61341858 C-264.25046384 157.3819949 -262.16762892 157.15058046 -260.08479309 156.91917419 C-254.13764117 156.25842158 -248.19050863 155.59749528 -242.2434082 154.9362793 C-230.85474803 153.67022285 -219.46600299 152.40497877 -208.07653809 151.1461792 C-203.3164446 150.62001798 -198.55644354 150.09302329 -193.79644775 149.565979 C-191.55589278 149.31812983 -189.31529379 149.07067813 -187.074646 148.82366943 C-175.55968451 147.55411304 -164.05099131 146.24889812 -152.55078125 144.8515625 C-141.74261765 143.54005472 -130.92400658 142.36382663 -120.09494019 141.23959351 C-103.39539991 139.50445113 -86.71455099 137.67436519 -70.06054688 135.54321289 C-68.83271484 135.38844482 -67.60488281 135.23367676 -66.33984375 135.07421875 C-65.28788818 134.93846436 -64.23593262 134.80270996 -63.15209961 134.6628418 C-60.14424203 134.37079996 -57.20748569 134.32454005 -54.1875 134.375 C-54.5175 134.045 -54.8475 133.715 -55.1875 133.375 C-56.3940625 133.4059375 -56.3940625 133.4059375 -57.625 133.4375 C-60.55511372 133.3860945 -62.77343211 133.09682028 -65.5925293 132.47241211 C-71.77935891 131.19712131 -77.9968472 130.46910504 -84.26953125 129.75390625 C-86.14278328 129.53576515 -86.14278328 129.53576515 -88.05387878 129.31321716 C-90.69693022 129.00626127 -93.34010018 128.70084012 -95.98364258 128.39819336 C-99.92265545 127.94716773 -103.86075067 127.48842161 -107.79882812 127.02929688 C-120.52079081 125.55352843 -133.24676638 124.14414739 -145.98828125 122.84765625 C-158.46015399 121.57813137 -170.90848033 120.15301818 -183.35302734 118.64013672 C-186.63999225 118.24058021 -189.92737919 117.8446415 -193.21484375 117.44921875 C-195.33856592 117.19290918 -197.4622648 116.93640659 -199.5859375 116.6796875 C-200.55252289 116.56301727 -201.51910828 116.44634705 -202.51498413 116.32614136 C-207.41491212 115.72984461 -212.30419962 115.09518386 -217.1875 114.375 C-216.00301291 109.68196843 -214.81249991 104.99051682 -213.61694336 100.30029297 C-213.21303567 98.71247384 -212.81063324 97.12427086 -212.40991211 95.53564453 C-209.67433257 84.69629676 -206.63774401 74.00907659 -203.1875 63.375 C-197.98076626 62.02786184 -195.00510092 63.49933233 -190.375 65.875 C-188.83815002 66.63076045 -187.30036865 67.38462951 -185.76171875 68.13671875 C-184.99005371 68.51747559 -184.21838867 68.89823242 -183.42333984 69.29052734 C-180.21582613 70.84630108 -176.96080691 72.27668799 -173.6875 73.6875 C-172.37234119 74.25768649 -171.05723988 74.8280056 -169.7421875 75.3984375 C-169.0315918 75.70620117 -168.32099609 76.01396484 -167.58886719 76.33105469 C-162.6563338 78.47537278 -157.73523341 80.64580396 -152.8125 82.8125 C-151.73194336 83.28776123 -150.65138672 83.76302246 -149.53808594 84.25268555 C-143.33025346 86.98490055 -137.13053228 89.73443872 -130.9375 92.5 C-123.55986145 95.79324111 -116.14120112 98.98650689 -108.70410156 102.14306641 C-102.48605729 104.78958938 -96.32979495 107.55751742 -90.1875 110.375 C-87.42157062 111.64203702 -84.65548424 112.90872028 -81.88867188 114.17382812 C-80.04151509 115.01842914 -78.19516335 115.86479299 -76.34960938 116.71289062 C-67.06832996 121.76919222 -67.06832996 121.76919222 -57.1875 124.375 C-65.70429405 117.75401846 -74.32771368 111.30087076 -83.04248047 104.94335938 C-87.16149274 101.93168912 -91.26760828 98.90248835 -95.375 95.875 C-96.1892041 95.27526367 -97.0034082 94.67552734 -97.84228516 94.05761719 C-98.60976074 93.49204102 -99.37723633 92.92646484 -100.16796875 92.34375 C-100.84754639 91.84294922 -101.52712402 91.34214844 -102.22729492 90.82617188 C-104.22031039 89.35070993 -106.2052761 87.86491951 -108.1875 86.375 C-106.61872312 82.52436584 -104.1713272 80.22319869 -101.1875 77.375 C-100.66285156 76.82972656 -100.13820313 76.28445313 -99.59765625 75.72265625 C-98.16625037 74.23525405 -96.67996156 72.80112994 -95.1875 71.375 C-94.5275 71.375 -93.8675 71.375 -93.1875 71.375 C-92.1975 69.395 -92.1975 69.395 -91.1875 67.375 C-86.60376485 71.63934118 -83.03898631 76.43855402 -79.375 81.5 C-78.7547998 82.34949219 -78.13459961 83.19898438 -77.49560547 84.07421875 C-75.72221582 86.50491761 -73.95430715 88.93951457 -72.1875 91.375 C-71.38452505 92.47686174 -70.58120811 93.57847446 -69.77734375 94.6796875 C-68.50946145 96.41892962 -67.24367938 98.15970564 -65.98046875 99.90234375 C-64.71547297 101.64688042 -63.44690246 103.3888277 -62.17578125 105.12890625 C-57.77181804 111.16023872 -53.44600519 117.24009096 -49.1875 123.375 C-53.1284389 113.3269606 -57.08268287 103.32772787 -61.6953125 93.56640625 C-63.39868253 89.92333475 -65.01938427 86.24943665 -66.625 82.5625 C-66.91769775 81.89057617 -67.21039551 81.21865234 -67.51196289 80.52636719 C-68.10711428 79.15884082 -68.70192046 77.79116417 -69.29638672 76.42333984 C-70.46572357 73.73546693 -71.64067811 71.0500725 -72.81640625 68.36499023 C-73.3938766 67.04577475 -73.97070701 65.72627895 -74.546875 64.40649414 C-76.08104331 60.89343961 -77.62549571 57.38532636 -79.18359375 53.8828125 C-79.5084375 53.14933594 -79.83328125 52.41585937 -80.16796875 51.66015625 C-80.79388663 50.24737017 -81.42267804 48.83585279 -82.0546875 47.42578125 C-84.1875 42.5999244 -84.1875 42.5999244 -84.1875 40.375 C-81.27404772 39.40588094 -78.35728499 38.44970314 -75.4375 37.5 C-74.63183594 37.23058594 -73.82617188 36.96117187 -72.99609375 36.68359375 C-68.31053148 35.17093191 -63.72041299 34.0584873 -58.85449219 33.28076172 C-57.78882019 33.10874237 -56.72314819 32.93672302 -55.62518311 32.75949097 C-54.82074768 32.63260895 -54.01631226 32.50572693 -53.1875 32.375 C-51.02970549 50.05016297 -49.01054385 67.73809536 -47.0625 85.4375 C-46.66541599 89.03906645 -46.26798287 92.64059359 -45.86990356 96.24205017 C-45.6255241 98.45353918 -45.38173078 100.66509306 -45.13864136 102.87672424 C-44.53091348 108.38223748 -43.89104229 113.88088478 -43.1875 119.375 C-37.20297542 68.3174872 -37.20297542 68.3174872 -31.59863281 17.21728516 C-30.81928911 9.93384619 -30.00209218 2.65456798 -29.1875 -4.625 C-19.6076401 -7.00847513 -9.20068066 -2.65186578 0 0 Z M-48.1875 124.375 C-47.1875 126.375 -47.1875 126.375 -47.1875 126.375 Z M-47.1875 126.375 C-46.1875 128.375 -46.1875 128.375 -46.1875 128.375 Z M-51.1875 128.375 C-50.1875 130.375 -50.1875 130.375 -50.1875 130.375 Z M-49.1875 129.375 C-48.1875 131.375 -48.1875 131.375 -48.1875 131.375 Z M-50.1875 136.375 C-49.1875 138.375 -49.1875 138.375 -49.1875 138.375 Z M-48.1875 140.375 C-47.1875 142.375 -47.1875 142.375 -47.1875 142.375 Z " fill="#D1AB66" transform="translate(396.1875,185.625)"/>
<path d="M0 0 C3.96 0 7.92 0 12 0 C12 0.33 12 0.66 12 1 C8.04 1 4.08 1 0 1 C0 0.67 0 0.34 0 0 Z " fill="#D2AC67" transform="translate(255,327)"/>
<path d="M0 0 C3.63 0 7.26 0 11 0 C11 0.33 11 0.66 11 1 C7.37 1 3.74 1 0 1 C0 0.67 0 0.34 0 0 Z " fill="#D2AC67" transform="translate(165,337)"/>
<path d="M0 0 C3.63 0 7.26 0 11 0 C11 0.33 11 0.66 11 1 C7.37 1 3.74 1 0 1 C0 0.67 0 0.34 0 0 Z " fill="#D2AC67" transform="translate(176,336)"/>
<path d="M0 0 C3.3 0 6.6 0 10 0 C10 0.33 10 0.66 10 1 C6.7 1 3.4 1 0 1 C0 0.67 0 0.34 0 0 Z " fill="#D2AC67" transform="translate(122,342)"/>
<path d="M0 0 C3.3 0 6.6 0 10 0 C10 0.33 10 0.66 10 1 C6.7 1 3.4 1 0 1 C0 0.67 0 0.34 0 0 Z " fill="#D2AC67" transform="translate(203,333)"/>
<path d="M0 0 C3.3 0 6.6 0 10 0 C10 0.33 10 0.66 10 1 C6.7 1 3.4 1 0 1 C0 0.67 0 0.34 0 0 Z " fill="#D2AC67" transform="translate(220,331)"/>
<path d="M0 0 C3.3 0 6.6 0 10 0 C10 0.33 10 0.66 10 1 C6.7 1 3.4 1 0 1 C0 0.67 0 0.34 0 0 Z " fill="#D2AC67" transform="translate(245,328)"/>
<path d="M0 0 C3.3 0 6.6 0 10 0 C10 0.33 10 0.66 10 1 C6.7 1 3.4 1 0 1 C0 0.67 0 0.34 0 0 Z " fill="#D2AC67" transform="translate(275,325)"/>
<path d="M0 0 C3.3 0 6.6 0 10 0 C10 0.33 10 0.66 10 1 C6.7 1 3.4 1 0 1 C0 0.67 0 0.34 0 0 Z " fill="#D2AC67" transform="translate(292,323)"/>
<path d="M0 0 C2.97 0 5.94 0 9 0 C9 0.33 9 0.66 9 1 C6.03 1 3.06 1 0 1 C0 0.67 0 0.34 0 0 Z " fill="#D2AC67" transform="translate(148,339)"/>
<path d="M0 0 C2.97 0 5.94 0 9 0 C9 0.33 9 0.66 9 1 C6.03 1 3.06 1 0 1 C0 0.67 0 0.34 0 0 Z " fill="#D2AC67" transform="translate(318,320)"/>
<path d="M0 0 C2.64 0 5.28 0 8 0 C8 0.33 8 0.66 8 1 C5.36 1 2.72 1 0 1 C0 0.67 0 0.34 0 0 Z " fill="#D2AC67" transform="translate(132,341)"/>
<path d="M0 0 C2.64 0 5.28 0 8 0 C8 0.33 8 0.66 8 1 C5.36 1 2.72 1 0 1 C0 0.67 0 0.34 0 0 Z " fill="#D2AC67" transform="translate(140,340)"/>
<path d="M0 0 C2.64 0 5.28 0 8 0 C8 0.33 8 0.66 8 1 C5.36 1 2.72 1 0 1 C0 0.67 0 0.34 0 0 Z " fill="#D2AC67" transform="translate(157,338)"/>
<path d="M0 0 C2.64 0 5.28 0 8 0 C8 0.33 8 0.66 8 1 C5.36 1 2.72 1 0 1 C0 0.67 0 0.34 0 0 Z " fill="#D2AC67" transform="translate(187,335)"/>
<path d="M0 0 C2.64 0 5.28 0 8 0 C8 0.33 8 0.66 8 1 C5.36 1 2.72 1 0 1 C0 0.67 0 0.34 0 0 Z " fill="#D2AC67" transform="translate(195,334)"/>
<path d="M0 0 C2.64 0 5.28 0 8 0 C8 0.33 8 0.66 8 1 C5.36 1 2.72 1 0 1 C0 0.67 0 0.34 0 0 Z " fill="#D2AC67" transform="translate(237,329)"/>
<path d="M0 0 C2.64 0 5.28 0 8 0 C8 0.33 8 0.66 8 1 C5.36 1 2.72 1 0 1 C0 0.67 0 0.34 0 0 Z " fill="#D2AC67" transform="translate(267,326)"/>
<path d="M0 0 C2.64 0 5.28 0 8 0 C8 0.33 8 0.66 8 1 C5.36 1 2.72 1 0 1 C0 0.67 0 0.34 0 0 Z " fill="#D2AC67" transform="translate(302,322)"/>
<path d="M0 0 C2.64 0 5.28 0 8 0 C8 0.33 8 0.66 8 1 C5.36 1 2.72 1 0 1 C0 0.67 0 0.34 0 0 Z " fill="#D2AC67" transform="translate(310,321)"/>
<path d="M0 0 C2.64 0 5.28 0 8 0 C8 0.33 8 0.66 8 1 C5.36 1 2.72 1 0 1 C0 0.67 0 0.34 0 0 Z " fill="#D2AC67" transform="translate(327,319)"/>
<path d="M0 0 C2.31 0 4.62 0 7 0 C7 0.33 7 0.66 7 1 C4.69 1 2.38 1 0 1 C0 0.67 0 0.34 0 0 Z " fill="#D2AC67" transform="translate(213,332)"/>
<path d="M0 0 C2.31 0 4.62 0 7 0 C7 0.33 7 0.66 7 1 C4.69 1 2.38 1 0 1 C0 0.67 0 0.34 0 0 Z " fill="#D2AC67" transform="translate(230,330)"/>
<path d="M0 0 C2.31 0 4.62 0 7 0 C7 0.33 7 0.66 7 1 C4.69 1 2.38 1 0 1 C0 0.67 0 0.34 0 0 Z " fill="#D2AC67" transform="translate(285,324)"/>
<path d="M0 0 C1.98 0 3.96 0 6 0 C6 0.33 6 0.66 6 1 C4.02 1 2.04 1 0 1 C0 0.67 0 0.34 0 0 Z " fill="#D2AC67" transform="translate(366,179)"/>
<path d="M0 0 C1.65 0 3.3 0 5 0 C5 0.33 5 0.66 5 1 C3.35 1 1.7 1 0 1 C0 0.67 0 0.34 0 0 Z " fill="#D2AC67" transform="translate(330,218)"/>
<path d="M0 0 C4 1 4 1 4 1 Z " fill="#D2AC67" transform="translate(316,222)"/>
<path d="M0 0 C4 1 4 1 4 1 Z " fill="#D2AC67" transform="translate(323,220)"/>
<path d="M0 0 C4 1 4 1 4 1 Z " fill="#D2AC67" transform="translate(335,217)"/>
<path d="M0 0 C3 1 3 1 3 1 Z " fill="#D2AC67" transform="translate(192,247)"/>
<path d="M0 0 C3 1 3 1 3 1 Z " fill="#D2AC67" transform="translate(313,223)"/>
<path d="M0 0 C3 1 3 1 3 1 Z " fill="#D2AC67" transform="translate(320,221)"/>
<path d="M0 0 C3 1 3 1 3 1 Z " fill="#D2AC67" transform="translate(327,219)"/>
<path d="M0 0 C3 1 3 1 3 1 Z " fill="#D2AC67" transform="translate(339,216)"/>
<path d="M0 0 C2 1 2 1 2 1 Z " fill="#D2AC67" transform="translate(241,398)"/>
<path d="M0 0 C2 1 2 1 2 1 Z " fill="#D2AC67" transform="translate(244,396)"/>
<path d="M0 0 C2 1 2 1 2 1 Z " fill="#D2AC67" transform="translate(247,394)"/>
<path d="M0 0 C2 1 2 1 2 1 Z " fill="#D2AC67" transform="translate(252,390)"/>
<path d="M0 0 C2 1 2 1 2 1 Z " fill="#D2AC67" transform="translate(256,387)"/>
<path d="M0 0 C2 1 2 1 2 1 Z " fill="#D2AC67" transform="translate(259,385)"/>
<path d="M0 0 C2 1 2 1 2 1 Z " fill="#D2AC67" transform="translate(263,382)"/>
<path d="M0 0 C2 1 2 1 2 1 Z " fill="#D2AC67" transform="translate(268,378)"/>
<path d="M0 0 C2 1 2 1 2 1 Z " fill="#D2AC67" transform="translate(271,376)"/>
<path d="M0 0 C2 1 2 1 2 1 Z " fill="#D2AC67" transform="translate(274,374)"/>
<path d="M0 0 C2 1 2 1 2 1 Z " fill="#D2AC67" transform="translate(279,370)"/>
<path d="M0 0 C2 1 2 1 2 1 Z " fill="#D2AC67" transform="translate(283,367)"/>
<path d="M0 0 C2 1 2 1 2 1 Z " fill="#D2AC67" transform="translate(286,365)"/>
<path d="M0 0 C2 1 2 1 2 1 Z " fill="#D2AC67" transform="translate(290,362)"/>
<path d="M0 0 C2 1 2 1 2 1 Z " fill="#D2AC67" transform="translate(295,358)"/>
<path d="M0 0 C2 1 2 1 2 1 Z " fill="#D2AC67" transform="translate(298,356)"/>
<path d="M0 0 C2 1 2 1 2 1 Z " fill="#D2AC67" transform="translate(302,353)"/>
<path d="M0 0 C2 1 2 1 2 1 Z " fill="#D2AC67" transform="translate(306,350)"/>
<path d="M0 0 C2 1 2 1 2 1 Z " fill="#D2AC67" transform="translate(310,347)"/>
<path d="M0 0 C2 1 2 1 2 1 Z " fill="#D2AC67" transform="translate(313,345)"/>
<path d="M0 0 C2 1 2 1 2 1 Z " fill="#D2AC67" transform="translate(317,342)"/>
<path d="M0 0 C2 1 2 1 2 1 Z " fill="#D2AC67" transform="translate(322,338)"/>
<path d="M0 0 C2 1 2 1 2 1 Z " fill="#D2AC67" transform="translate(325,336)"/>
<path d="M0 0 C2 1 2 1 2 1 Z " fill="#D2AC67" transform="translate(329,333)"/>
<path d="M0 0 C2 1 2 1 2 1 Z " fill="#D2AC67" transform="translate(333,330)"/>
<path d="M0 0 C2 1 2 1 2 1 Z " fill="#D2AC67" transform="translate(289,266)"/>
<path d="M0 0 C2 1 2 1 2 1 Z " fill="#D2AC67" transform="translate(300,255)"/>
<path d="M0 0 C2 1 2 1 2 1 Z " fill="#D2AC67" transform="translate(303,252)"/>
<path d="M0 0 C2 1 2 1 2 1 Z " fill="#D2AC67" transform="translate(311,224)"/>
<path d="" fill="#D2AC67" transform="translate(0,0)"/>
<path d="" fill="#D2AC67" transform="translate(0,0)"/>
<path d="" fill="#D2AC67" transform="translate(0,0)"/>
<path d="" fill="#D2AC67" transform="translate(0,0)"/>
<path d="" fill="#D2AC67" transform="translate(0,0)"/>
<path d="" fill="#D2AC67" transform="translate(0,0)"/>
<path d="" fill="#D2AC67" transform="translate(0,0)"/>
<path d="" fill="#D2AC67" transform="translate(0,0)"/>
<path d="" fill="#D2AC67" transform="translate(0,0)"/>
<path d="" fill="#D2AC67" transform="translate(0,0)"/>
<path d="" fill="#D2AC67" transform="translate(0,0)"/>
<path d="" fill="#D2AC67" transform="translate(0,0)"/>
<path d="" fill="#D2AC67" transform="translate(0,0)"/>
<path d="" fill="#D2AC67" transform="translate(0,0)"/>
<path d="" fill="#D2AC67" transform="translate(0,0)"/>
<path d="" fill="#D2AC67" transform="translate(0,0)"/>
<path d="" fill="#D2AC67" transform="translate(0,0)"/>
<path d="" fill="#D2AC67" transform="translate(0,0)"/>
<path d="" fill="#D2AC67" transform="translate(0,0)"/>
<path d="" fill="#D2AC67" transform="translate(0,0)"/>
<path d="" fill="#D2AC67" transform="translate(0,0)"/>
<path d="" fill="#D2AC67" transform="translate(0,0)"/>
<path d="" fill="#D2AC67" transform="translate(0,0)"/>
<path d="" fill="#D2AC67" transform="translate(0,0)"/>
<path d="" fill="#D2AC67" transform="translate(0,0)"/>
<path d="" fill="#D2AC67" transform="translate(0,0)"/>
<path d="" fill="#D2AC67" transform="translate(0,0)"/>
<path d="" fill="#D2AC67" transform="translate(0,0)"/>
<path d="" fill="#D2AC67" transform="translate(0,0)"/>
<path d="" fill="#D2AC67" transform="translate(0,0)"/>
<path d="" fill="#D2AC67" transform="translate(0,0)"/>
<path d="" fill="#D2AC67" transform="translate(0,0)"/>
<path d="" fill="#D2AC67" transform="translate(0,0)"/>
<path d="" fill="#D2AC67" transform="translate(0,0)"/>
<path d="" fill="#D2AC67" transform="translate(0,0)"/>
<path d="" fill="#D2AC67" transform="translate(0,0)"/>
<path d="" fill="#D2AC67" transform="translate(0,0)"/>
<path d="" fill="#D2AC67" transform="translate(0,0)"/>
<path d="" fill="#D2AC67" transform="translate(0,0)"/>
<path d="" fill="#D2AC67" transform="translate(0,0)"/>
<path d="" fill="#D2AC67" transform="translate(0,0)"/>
<path d="" fill="#D2AC67" transform="translate(0,0)"/>
<path d="" fill="#D2AC67" transform="translate(0,0)"/>
<path d="" fill="#D2AC67" transform="translate(0,0)"/>
<path d="" fill="#D2AC67" transform="translate(0,0)"/>
<path d="" fill="#D2AC67" transform="translate(0,0)"/>
<path d="" fill="#D2AC67" transform="translate(0,0)"/>
<path d="" fill="#D2AC67" transform="translate(0,0)"/>
<path d="" fill="#D2AC67" transform="translate(0,0)"/>
<path d="" fill="#D2AC67" transform="translate(0,0)"/>
<path d="" fill="#D2AC67" transform="translate(0,0)"/>
<path d="" fill="#D2AC67" transform="translate(0,0)"/>
<path d="" fill="#D2AC67" transform="translate(0,0)"/>
<path d="" fill="#D2AC67" transform="translate(0,0)"/>
<path d="" fill="#D2AC67" transform="translate(0,0)"/>
<path d="" fill="#D2AC67" transform="translate(0,0)"/>
<path d="" fill="#D2AC67" transform="translate(0,0)"/>
<path d="" fill="#D2AC67" transform="translate(0,0)"/>
<path d="" fill="#D2AC67" transform="translate(0,0)"/>
<path d="" fill="#D2AC67" transform="translate(0,0)"/>
<path d="" fill="#D2AC67" transform="translate(0,0)"/>
<path d="" fill="#D2AC67" transform="translate(0,0)"/>
<path d="" fill="#D2AC67" transform="translate(0,0)"/>
<path d="" fill="#D2AC67" transform="translate(0,0)"/>
<path d="" fill="#D2AC67" transform="translate(0,0)"/>
<path d="" fill="#D2AC67" transform="translate(0,0)"/>
<path d="" fill="#D2AC67" transform="translate(0,0)"/>
<path d="" fill="#D2AC67" transform="translate(0,0)"/>
<path d="" fill="#D2AC67" transform="translate(0,0)"/>
<path d="" fill="#D2AC67" transform="translate(0,0)"/>
<path d="" fill="#D2AC67" transform="translate(0,0)"/>
<path d="" fill="#D2AC67" transform="translate(0,0)"/>
<path d="" fill="#D2AC67" transform="translate(0,0)"/>
<path d="" fill="#D2AC67" transform="translate(0,0)"/>
<path d="" fill="#D2AC67" transform="translate(0,0)"/>
<path d="" fill="#D2AC67" transform="translate(0,0)"/>
<path d="" fill="#D2AC67" transform="translate(0,0)"/>
<path d="" fill="#D2AC67" transform="translate(0,0)"/>
<path d="" fill="#D2AC67" transform="translate(0,0)"/>
<path d="" fill="#D2AC67" transform="translate(0,0)"/>
<path d="" fill="#D2AC67" transform="translate(0,0)"/>
<path d="" fill="#D2AC67" transform="translate(0,0)"/>
<path d="" fill="#D2AC67" transform="translate(0,0)"/>
<path d="" fill="#D2AC67" transform="translate(0,0)"/>
<path d="" fill="#D2AC67" transform="translate(0,0)"/>
<path d="" fill="#D2AC67" transform="translate(0,0)"/>
<path d="" fill="#D2AC67" transform="translate(0,0)"/>
<path d="" fill="#D2AC67" transform="translate(0,0)"/>
<path d="" fill="#D2AC67" transform="translate(0,0)"/>
<path d="" fill="#D2AC67" transform="translate(0,0)"/>
<path d="" fill="#D2AC67" transform="translate(0,0)"/>
<path d="" fill="#D2AC67" transform="translate(0,0)"/>
<path d="" fill="#D2AC67" transform="translate(0,0)"/>
<path d="" fill="#D2AC67" transform="translate(0,0)"/>
<path d="" fill="#D2AC67" transform="translate(0,0)"/>
<path d="" fill="#D2AC67" transform="translate(0,0)"/>
<path d="" fill="#D2AC67" transform="translate(0,0)"/>
<path d="" fill="#D2AC67" transform="translate(0,0)"/>
<path d="" fill="#D2AC67" transform="translate(0,0)"/>
<path d="" fill="#D2AC67" transform="translate(0,0)"/>
<path d="" fill="#D2AC67" transform="translate(0,0)"/>
<path d="" fill="#D2AC67" transform="translate(0,0)"/>
<path d="" fill="#D2AC67" transform="translate(0,0)"/>
<path d="" fill="#D2AC67" transform="translate(0,0)"/>
<path d="" fill="#D2AC67" transform="translate(0,0)"/>
<path d="" fill="#D2AC67" transform="translate(0,0)"/>
<path d="" fill="#D2AC67" transform="translate(0,0)"/>
<path d="" fill="#D2AC67" transform="translate(0,0)"/>
<path d="" fill="#D2AC67" transform="translate(0,0)"/>
<path d="" fill="#D2AC67" transform="translate(0,0)"/>
<path d="" fill="#D2AC67" transform="translate(0,0)"/>
<path d="" fill="#D2AC67" transform="translate(0,0)"/>
<path d="" fill="#D2AC67" transform="translate(0,0)"/>
<path d="" fill="#D2AC67" transform="translate(0,0)"/>
<path d="" fill="#D2AC67" transform="translate(0,0)"/>
<path d="" fill="#D2AC67" transform="translate(0,0)"/>
<path d="" fill="#D2AC67" transform="translate(0,0)"/>
<path d="" fill="#D2AC67" transform="translate(0,0)"/>
<path d="" fill="#D2AC67" transform="translate(0,0)"/>
<path d="" fill="#D2AC67" transform="translate(0,0)"/>
<path d="" fill="#D2AC67" transform="translate(0,0)"/>
<path d="" fill="#D2AC67" transform="translate(0,0)"/>
<path d="" fill="#D2AC67" transform="translate(0,0)"/>
<path d="" fill="#D2AC67" transform="translate(0,0)"/>
<path d="" fill="#D2AC67" transform="translate(0,0)"/>
</svg>
